<svg width="48" height="48" viewBox="0 0 48 48" fill="none" xmlns="http://www.w3.org/2000/svg">
<g clip-path="url(#clip0_2_41)">
<path d="M24.0207 7.01901C21.8108 7.01763 19.6522 7.68533 17.829 8.93426C16.0059 10.1832 14.6035 11.9548 13.8065 14.016H34.2341C33.4372 11.955 32.0349 10.1834 30.2119 8.9345C28.3889 7.68558 26.2305 7.0178 24.0207 7.01901V7.01901ZM27.8973 11.5205C27.8079 11.6732 27.6796 11.7996 27.5256 11.8868C27.3716 11.9739 27.1972 12.0188 27.0203 12.0169H21.022C20.7582 12.0392 20.4962 11.9564 20.2932 11.7865C20.0901 11.6166 19.9624 11.3734 19.9378 11.1098C19.9132 10.8462 19.9937 10.5836 20.1618 10.379C20.3299 10.1745 20.572 10.0447 20.8353 10.0177H27.0194C27.1964 10.0154 27.3708 10.06 27.5248 10.1471C27.6788 10.2342 27.807 10.3606 27.8962 10.5134C27.9854 10.6662 28.0324 10.84 28.0325 11.0169C28.0325 11.1939 27.9856 11.3677 27.8965 11.5205H27.8973Z" fill="#AAB1BF"/>
<path d="M32.1426 26.0729L31.8926 25.3548C31.7902 25.0617 31.6212 24.7963 31.3989 24.5795C31.1766 24.3627 30.9071 24.2004 30.6116 24.1053L30.0818 23.9504L29.9568 23.3872C29.8161 22.7209 29.4525 22.1225 28.9258 21.6909C28.3992 21.2592 27.7411 21.02 27.0602 21.0128C26.3793 21.0056 25.7163 21.2309 25.1807 21.6513C24.6451 22.0718 24.2689 22.6624 24.1142 23.3255L23.8642 24.3251L22.8962 24.0735C22.7741 24.0379 22.6482 24.0172 22.5212 24.0118C22.1582 24.0119 21.8079 24.1456 21.5372 24.3874C21.2665 24.6292 21.0943 24.9623 21.0535 25.323L20.9587 25.9178L20.3656 26.137C19.9728 26.2678 19.6315 26.5194 19.3903 26.8559C19.1492 27.1923 19.0205 27.5964 19.0228 28.0104C19.0208 28.2735 19.0711 28.5344 19.1709 28.7778C19.2706 29.0213 19.4178 29.2425 19.6038 29.4286C19.7899 29.6146 20.0111 29.7618 20.2545 29.8615C20.498 29.9613 20.7589 30.0116 21.022 30.0095H33.0172C33.2797 30.0095 33.5397 29.9578 33.7822 29.8574C34.0248 29.7569 34.2452 29.6096 34.4308 29.424C34.6164 29.2384 34.7637 29.018 34.8641 28.7754C34.9646 28.5329 35.0163 28.2729 35.0163 28.0104C35.0163 27.7478 34.9646 27.4879 34.8641 27.2453C34.7637 27.0028 34.6164 26.7824 34.4308 26.5968C34.2452 26.4111 34.0248 26.2639 33.7822 26.1634C33.5397 26.0629 33.2797 26.0112 33.0172 26.0112C33.1104 26.0112 33.0638 26.0312 32.8922 26.0427L32.1426 26.0729Z" fill="white"/>
<path d="M13.0251 18.0146V30.0098C13.022 32.7949 14.0769 35.4772 15.9766 37.5139C17.8762 39.5505 20.4786 40.7895 23.2572 40.9801C26.0358 41.1706 28.783 40.2985 30.9428 38.5402C33.1027 36.7819 34.514 34.2687 34.8911 31.5093C34.3183 31.8308 33.6737 32.0027 33.0169 32.0092H21.0217C19.9622 32.0061 18.947 31.5838 18.1978 30.8346C17.4487 30.0854 17.0265 29.0702 17.0234 28.0106C17.0234 26.4484 18.023 25.195 19.3358 24.5438C19.7807 23.126 20.9636 22.0132 22.5212 22.0132C22.91 21.0861 23.5752 20.3015 24.4262 19.7663C25.2772 19.2311 26.2725 18.9714 27.2765 19.0226C28.2805 19.0738 29.2443 19.4334 30.0364 20.0523C30.8285 20.6713 31.4105 21.5195 31.7029 22.4813C32.4135 22.8295 33.0019 23.3848 33.3905 24.074C33.9636 24.133 34.5175 24.3143 35.0147 24.6055V18.0146C35.0123 17.3439 34.9493 16.6748 34.8264 16.0155H13.2134C13.0905 16.6748 13.0275 17.3439 13.0251 18.0146V18.0146Z" fill="#628FF9"/>
<path d="M24.0207 3.02072C22.0511 3.01862 20.1004 3.40503 18.2803 4.1578C16.4602 4.91057 14.8065 6.01494 13.4138 7.40767C12.021 8.8004 10.9167 10.4541 10.1639 12.2742C9.41113 14.0943 9.02473 16.045 9.02682 18.0146V30.0095C9.02682 33.9862 10.6065 37.7999 13.4184 40.6118C16.2303 43.4237 20.0441 45.0034 24.0207 45.0034C27.9974 45.0034 31.8111 43.4237 34.623 40.6118C37.4349 37.7999 39.0147 33.9862 39.0147 30.0095V18.0146C39.0167 16.045 38.6303 14.0943 37.8776 12.2742C37.1248 10.4541 36.0204 8.8004 34.6277 7.40767C33.235 6.01494 31.5812 4.91057 29.7611 4.1578C27.941 3.40503 25.9904 3.01862 24.0207 3.02072V3.02072ZM37.0155 30.0095C36.9997 33.4456 35.6237 36.7355 33.1884 39.1596C30.7532 41.5837 27.457 42.9446 24.0209 42.9446C20.5848 42.9446 17.2886 41.5837 14.8533 39.1596C12.4181 36.7355 11.042 33.4456 11.0262 30.0095V18.0146C11.042 14.5786 12.4181 11.2886 14.8533 8.86455C17.2886 6.44045 20.5848 5.07955 24.0209 5.07955C27.457 5.07955 30.7532 6.44045 33.1884 8.86455C35.6237 11.2886 36.9997 14.5786 37.0155 18.0146V30.0095Z" fill="#AAB1BF"/>
<path d="M24.0207 1.02156C19.515 1.02512 15.1948 2.81659 12.0087 6.00264C8.8227 9.18869 7.03122 13.5089 7.02766 18.0146V30.0098C7.02766 34.5166 8.818 38.8389 12.0048 42.0257C15.1916 45.2125 19.5139 47.0029 24.0207 47.0029C28.5276 47.0029 32.8498 45.2125 36.0366 42.0257C39.2234 38.8389 41.0138 34.5166 41.0138 30.0098V18.0146C41.0102 13.5089 39.2187 9.18869 36.0327 6.00264C32.8467 2.81659 28.5265 1.02512 24.0207 1.02156V1.02156ZM39.0146 30.0098C39.0146 33.9864 37.4349 37.8002 34.623 40.6121C31.8111 43.424 27.9974 45.0037 24.0207 45.0037C20.0441 45.0037 16.2303 43.424 13.4184 40.6121C10.6065 37.8002 9.02681 33.9864 9.02681 30.0098V18.0146C9.02681 14.038 10.6065 10.2242 13.4184 7.41232C16.2303 4.60042 20.0441 3.02071 24.0207 3.02071C27.9974 3.02071 31.8111 4.60042 34.623 7.41232C37.4349 10.2242 39.0146 14.038 39.0146 18.0146V30.0098Z" fill="black"/>
<path d="M24.0207 5.01987C20.5755 5.02372 17.2724 6.39404 14.8363 8.83019C12.4001 11.2664 11.0298 14.5694 11.026 18.0146V30.0098C11.0417 33.4459 12.4178 36.7358 14.853 39.1599C17.2883 41.584 20.5845 42.9449 24.0206 42.9449C27.4567 42.9449 30.7529 41.584 33.1881 39.1599C35.6234 36.7358 36.9994 33.4459 37.0152 30.0098V18.0146C37.0114 14.5694 35.6411 11.2664 33.205 8.83029C30.7689 6.39414 27.4659 5.02379 24.0207 5.01987V5.01987ZM33.0169 26.0112C33.5471 26.0112 34.0556 26.2219 34.4305 26.5968C34.8054 26.9717 35.0161 27.4802 35.0161 28.0104C35.0161 28.5406 34.8054 29.0491 34.4305 29.424C34.0556 29.7989 33.5471 30.0095 33.0169 30.0095H21.022C20.7589 30.0116 20.498 29.9613 20.2545 29.8615C20.0111 29.7618 19.7899 29.6146 19.6038 29.4285C19.4178 29.2425 19.2706 29.0213 19.1709 28.7778C19.0711 28.5344 19.0208 28.2735 19.0228 28.0104C19.0204 27.5963 19.149 27.192 19.3902 26.8553C19.6314 26.5187 19.9729 26.267 20.3658 26.1362L20.959 25.9169L21.0538 25.3222C21.0946 24.9615 21.2668 24.6284 21.5375 24.3866C21.8082 24.1447 22.1585 24.011 22.5215 24.011C22.6485 24.0164 22.7744 24.0371 22.8964 24.0726L23.8645 24.3243L24.1145 23.3247C24.2692 22.6615 24.6454 22.071 25.181 21.6505C25.7166 21.2301 26.3796 21.0048 27.0605 21.012C27.7414 21.0192 28.3995 21.2584 28.9261 21.6901C29.4527 22.1217 29.8164 22.7201 29.9571 23.3864L30.082 23.9496L30.6118 24.1044C30.9074 24.1996 31.1769 24.3619 31.3992 24.5787C31.6214 24.7955 31.7904 25.0609 31.8929 25.354L32.1429 26.0721L32.8925 26.0422C33.0635 26.0312 33.1104 26.0112 33.0169 26.0112V26.0112ZM35.0161 18.0146V24.6052C34.5189 24.314 33.965 24.1328 33.3918 24.0737C33.0032 23.3845 32.4149 22.8292 31.7043 22.4811C31.4119 21.5192 30.8299 20.671 30.0378 20.0521C29.2456 19.4331 28.2819 19.0735 27.2779 19.0223C26.2739 18.9711 25.2785 19.2308 24.4275 19.766C23.5766 20.3012 22.9113 21.0858 22.5226 22.0129C20.965 22.0129 19.7818 23.1257 19.3372 24.5435C18.0244 25.195 17.0248 26.4495 17.0248 28.0104C17.0279 29.0698 17.4501 30.085 18.1993 30.8342C18.9485 31.5833 19.9636 32.0056 21.0231 32.0087H33.0183C33.6751 32.0022 34.3197 31.8302 34.8924 31.5088C34.5154 34.2682 33.1041 36.7814 30.9442 38.5397C28.7843 40.298 26.0371 41.1701 23.2586 40.9795C20.48 40.789 17.8776 39.55 15.978 37.5133C14.0783 35.4766 13.0233 32.7943 13.0265 30.0093V18.0146C13.0289 17.3439 13.0919 16.6748 13.2148 16.0155H34.8291C34.9516 16.6749 35.0141 17.344 35.0161 18.0146V18.0146ZM13.8065 14.0163C14.6046 11.9559 16.0072 10.1849 17.8302 8.93613C19.6531 7.68733 21.8111 7.01905 24.0207 7.01905C26.2304 7.01905 28.3884 7.68733 30.2113 8.93613C32.0342 10.1849 33.4368 11.9559 34.2349 14.0163H13.8065Z" fill="black"/>
<path d="M27.0194 10.0177H20.8353C20.572 10.0447 20.3299 10.1745 20.1618 10.379C19.9937 10.5836 19.9132 10.8462 19.9378 11.1098C19.9624 11.3734 20.0901 11.6166 20.2932 11.7865C20.4962 11.9564 20.7582 12.0392 21.022 12.0169H27.0194C27.2846 12.0169 27.5388 11.9116 27.7263 11.7241C27.9137 11.5367 28.019 11.2824 28.019 11.0173C28.019 10.7522 27.9137 10.498 27.7263 10.3105C27.5388 10.1231 27.2846 10.0177 27.0194 10.0177V10.0177Z" fill="black"/>
</g>
<defs>
<clipPath id="clip0_2_41">
<rect width="48" height="48" fill="white"/>
</clipPath>
</defs>
</svg>
